<?xml version="1.0" encoding="UTF-8"?>
<svg id="Ebene_2" xmlns="http://www.w3.org/2000/svg" version="1.1" viewBox="0 0 1026.9 385.7">
  <!-- Generator: Adobe Illustrator 30.0.0, SVG Export Plug-In . SVG Version: 2.1.1 Build 123)  -->
  <defs>
    <style>
      .st0 {
        fill: #fff;
      }

      .st1 {
        fill: purple;
      }
    </style>
  </defs>
  <path class="st1" d="M895,171.6l83.1-139.1h-14.9l-73.9,126.2-75.3-126.2h-14.9l83.1,139.1v95h12.9v-95h0ZM686.8,166.2l46.1-123.1,45.5,123.1h-91.6ZM782.4,177.4l33.6,89.2h13.9l-88.2-234h-17l-89.2,234h13.9l32.9-89.2h100.1ZM542.3,253.7c-10.2,1.4-17.6,1.7-28.8,1.7h-54.6V43.7h55.3c12.2,0,18,0,25.4,1,37.6,4.1,79.4,35.3,79.4,103.4s-39,100.7-76.6,105.5M540.6,33.2c-9.5-.7-14.9-.7-26.1-.7h-68.5v234h68.2c11.2,0,18,0,29.9-1.4,37-4.4,89.2-38,89.2-117s-52.2-111.2-92.6-115M391.6,206.5c-20,0-33.9,13.9-33.9,33.9s13.9,33.9,33.9,33.9,33.9-13.9,33.9-33.9-13.9-33.9-33.9-33.9M335.1,32.5h-61.1v234h61.1V32.5ZM135.6,218.4c-7.8.7-13.2.7-22.1.7h-19V80h19c8.8,0,14.2,0,22.1.7,30.5,2.7,51.6,25.1,51.6,66.8s-21,68.2-51.6,70.9M151.9,33.9c-11.9-1.4-17.3-1.4-29.8-1.4H33.5v234h88.5c12.6,0,18,0,29.8-1.4,54.3-6.1,99-45.4,99-118.7s-44.8-106.5-99-112.6"/>
  <g>
    <polygon class="st0" points="1020.7 308.8 910.4 198.5 908.5 198.5 898.5 208.6 898.5 362.4 909.7 362.4 931.7 337.7 940.1 329.5 951.2 342.6 951.8 353.1 959.6 358.6 967.5 381.9 983.2 378.4 990.1 372 990.1 360.9 981 347.5 972.1 327.8 972.1 319.3 1013.4 319.3 1020.7 308.8"/>
    <g>
      <path d="M914.5,193.3v9.1h10.3v10.1h-10.3v-10.1h-10.1v153.1h10.1v10.1h-10.1v10.3h-9.9v-173.5h9.9v-9.1h10.1Z"/>
      <path d="M1016.6,304.5h-10.1v-10.3h10.1v10.3h10.3v10.1h-10.3v10.3h-40.9v10.3h-10.1v-20.5h50.9v-10.1h0Z"/>
      <path d="M945.3,334.9h-10.3v-10.1h10.3v10.1h10.1v20.5h10.3v20.4h20.3v-20.3h-10.1v-20.3h10.1v20.3h10.3v20.3h-10.3v9.7h-20.3v-9.7h-10.3v-20.4h-10.1v-20.5Z"/>
      <path d="M924.8,345.2v-10.1h10.3v10.1h-10.3v10.3h-10l-.3-.3v-9.7c.2-.3.4-.3.7-.3,2.7-.3,6.7,0,9.6,0Z"/>
      <path d="M935.1,222.7h-10.3v-10.1h10.3v10.1h10.1v10.3h10.3v10.1h-10.3v-10.1h-10.1v-10.3Z"/>
      <path d="M965.7,253.4h-10.3v-10.1h10.3v10.1h10.1v10.3h-10.1v-10.3h0Z"/>
      <path d="M996.3,284h-10.3v-10.1h10.3v10.1h10.1v10.3h-10.1v-10.3Z"/>
      <rect x="975.9" y="263.6" width="10.1" height="10.1"/>
    </g>
  </g>
</svg>