<?xml version="1.0" encoding="UTF-8"?>
<svg width="147.93px" height="23.277px" enable-background="new 0 0 147.932 23.277" version="1.1" viewBox="0 0 147.93 23.277" xml:space="preserve" xmlns="http://www.w3.org/2000/svg" xmlns:cc="http://creativecommons.org/ns#" xmlns:dc="http://purl.org/dc/elements/1.1/" xmlns:rdf="http://www.w3.org/1999/02/22-rdf-syntax-ns#"><metadata><rdf:RDF><cc:Work rdf:about=""><dc:format>image/svg+xml</dc:format><dc:type rdf:resource="http://purl.org/dc/dcmitype/StillImage"/></cc:Work></rdf:RDF></metadata>

	<g fill="#800080">
		<path d="m2.468 18.934c-3.945-6.559-2.946-11.646 1.48-15.935 2.779-2.692 5.046-2.207 5.05-1.587 0.068 5.693-1.315 10.989-2.651 16.416-0.77 3.512-1.546 4.518-3.879 1.106zm10.21-10.474c-1.176-2.493-4.838-8.884 0.136-8.438 9.13-0.013 13.601 13.388 8.224 16.806-0.996 0.79-6.486-4.486-8.36-8.368z"/>
		<path d="m7.553 21.31c-0.324-0.784-0.349-1.759 0.109-3.124 1.411-4.204 6.672-5.216 9.51-1.832 4.612 5.213-6.891 9.613-9.619 4.956z"/>
	
	
		
			<path d="m35.503 18.063h-2.358v-5.261c0-0.65-0.098-1.138-0.291-1.463-0.193-0.324-0.491-0.487-0.894-0.487-0.305 0-0.56 0.064-0.766 0.193s-0.371 0.32-0.495 0.572c-0.124 0.253-0.211 0.563-0.263 0.935-0.052 0.37-0.077 0.795-0.077 1.272v4.237h-2.359v-12.534h2.359v2.555c0 0.226-5e-3 0.464-0.017 0.713-0.01 0.25-0.022 0.479-0.038 0.688-0.021 0.247-0.039 0.488-0.055 0.726h0.124c0.252-0.467 0.575-0.805 0.967-1.011 0.393-0.207 0.835-0.312 1.331-0.312 0.429 0 0.816 0.063 1.165 0.189s0.646 0.323 0.894 0.593c0.247 0.269 0.438 0.609 0.573 1.025 0.134 0.417 0.2 0.915 0.2 1.495v5.875z"/>
			<path d="m45.928 13.544c0 0.752-0.093 1.418-0.275 1.998s-0.446 1.067-0.789 1.466c-0.343 0.397-0.761 0.7-1.253 0.906-0.493 0.207-1.046 0.311-1.66 0.311-0.572 0-1.098-0.104-1.578-0.311-0.479-0.206-0.894-0.509-1.242-0.906s-0.619-0.886-0.815-1.466-0.294-1.246-0.294-1.998c0-0.747 0.091-1.41 0.273-1.99 0.184-0.58 0.446-1.067 0.789-1.462 0.344-0.396 0.761-0.694 1.25-0.898 0.49-0.203 1.044-0.307 1.663-0.307 0.573 0 1.1 0.104 1.578 0.307 0.48 0.204 0.895 0.504 1.242 0.898s0.62 0.882 0.815 1.462c0.198 0.58 0.296 1.243 0.296 1.99zm-5.492 0c0 0.896 0.121 1.572 0.363 2.025s0.638 0.682 1.185 0.682c0.542 0 0.933-0.229 1.176-0.687 0.242-0.456 0.363-1.13 0.363-2.021 0-0.897-0.121-1.567-0.363-2.011-0.243-0.442-0.64-0.664-1.19-0.664-0.542 0-0.933 0.222-1.173 0.664-0.241 0.445-0.361 1.114-0.361 2.012z"/>
			<path d="m54.265 15.389c0 0.473-0.083 0.886-0.248 1.241-0.165 0.354-0.4 0.648-0.704 0.886-0.305 0.237-0.673 0.414-1.106 0.532-0.433 0.117-0.918 0.177-1.455 0.177-0.284 0-0.546-0.01-0.789-0.027-0.241-0.02-0.472-0.051-0.688-0.094s-0.425-0.097-0.626-0.161c-0.201-0.063-0.405-0.145-0.611-0.24v-2.03c0.217 0.112 0.445 0.215 0.686 0.306 0.239 0.092 0.479 0.171 0.716 0.238 0.236 0.066 0.468 0.119 0.691 0.157 0.225 0.037 0.433 0.056 0.623 0.056 0.211 0 0.393-0.02 0.542-0.061 0.149-0.04 0.272-0.098 0.368-0.169 0.095-0.072 0.165-0.158 0.209-0.259 0.043-0.1 0.065-0.205 0.065-0.317s-0.018-0.213-0.05-0.303c-0.033-0.089-0.109-0.183-0.229-0.281-0.119-0.1-0.293-0.212-0.521-0.338-0.229-0.127-0.538-0.281-0.925-0.465-0.376-0.177-0.702-0.353-0.979-0.526s-0.503-0.369-0.681-0.584c-0.179-0.215-0.312-0.461-0.398-0.737-0.088-0.276-0.131-0.604-0.131-0.987 0-0.419 0.077-0.784 0.231-1.1 0.155-0.315 0.374-0.576 0.658-0.785 0.283-0.21 0.625-0.367 1.025-0.472 0.398-0.104 0.844-0.157 1.334-0.157 0.516 0 1.005 0.062 1.47 0.187 0.464 0.124 0.941 0.309 1.431 0.556l-0.712 1.74c-0.392-0.193-0.766-0.353-1.122-0.476-0.355-0.124-0.711-0.186-1.066-0.186-0.32 0-0.551 0.059-0.692 0.177s-0.213 0.279-0.213 0.483c0 0.106 0.019 0.203 0.054 0.285 0.036 0.083 0.108 0.17 0.218 0.259 0.107 0.089 0.26 0.186 0.456 0.29 0.195 0.104 0.45 0.231 0.766 0.383 0.366 0.167 0.696 0.332 0.99 0.495 0.294 0.164 0.546 0.351 0.758 0.561 0.211 0.209 0.374 0.454 0.487 0.733 0.111 0.277 0.168 0.615 0.168 1.013z"/>
			<path d="m60.172 16.267c0.232 0 0.453-0.025 0.661-0.08 0.209-0.054 0.422-0.121 0.639-0.201v1.828c-0.223 0.118-0.496 0.218-0.824 0.294-0.328 0.078-0.686 0.117-1.071 0.117-0.376 0-0.727-0.046-1.052-0.137-0.325-0.092-0.606-0.251-0.843-0.479s-0.425-0.533-0.562-0.919c-0.137-0.384-0.205-0.865-0.205-1.445v-4.343h-1.129v-1.04l1.299-0.821 0.682-1.901h1.509v1.917h2.104v1.846h-2.104v4.343c0 0.35 0.083 0.606 0.248 0.772 0.164 0.166 0.38 0.249 0.648 0.249z"/>
			<path d="m69.522 15.389c0 0.473-0.083 0.886-0.248 1.241-0.165 0.354-0.4 0.648-0.704 0.886s-0.673 0.414-1.106 0.532c-0.433 0.117-0.918 0.177-1.455 0.177-0.283 0-0.546-0.01-0.788-0.027-0.242-0.02-0.473-0.051-0.688-0.094s-0.425-0.097-0.626-0.161c-0.201-0.063-0.405-0.145-0.611-0.24v-2.03c0.218 0.112 0.445 0.215 0.686 0.306 0.24 0.092 0.479 0.171 0.716 0.238 0.237 0.066 0.468 0.119 0.692 0.157 0.224 0.037 0.432 0.056 0.623 0.056 0.211 0 0.392-0.02 0.542-0.061 0.148-0.04 0.271-0.098 0.367-0.169 0.096-0.072 0.165-0.158 0.209-0.259 0.043-0.1 0.065-0.205 0.065-0.317s-0.017-0.213-0.05-0.303c-0.033-0.089-0.109-0.183-0.229-0.281-0.119-0.1-0.293-0.212-0.521-0.338-0.229-0.127-0.538-0.281-0.924-0.465-0.376-0.177-0.703-0.353-0.979-0.526s-0.503-0.369-0.681-0.584c-0.179-0.215-0.312-0.461-0.398-0.737-0.088-0.276-0.131-0.604-0.131-0.987 0-0.419 0.077-0.784 0.232-1.1 0.154-0.315 0.374-0.576 0.657-0.785 0.283-0.21 0.625-0.367 1.025-0.472 0.399-0.104 0.844-0.157 1.334-0.157 0.516 0 1.005 0.062 1.47 0.187 0.464 0.124 0.941 0.309 1.432 0.556l-0.712 1.74c-0.393-0.193-0.767-0.353-1.122-0.476-0.356-0.124-0.711-0.186-1.067-0.186-0.32 0-0.551 0.059-0.692 0.177s-0.213 0.279-0.213 0.483c0 0.106 0.019 0.203 0.055 0.285 0.035 0.083 0.107 0.17 0.217 0.259 0.107 0.089 0.26 0.186 0.456 0.29 0.195 0.104 0.451 0.231 0.766 0.383 0.366 0.167 0.696 0.332 0.99 0.495 0.294 0.164 0.546 0.351 0.758 0.561 0.211 0.209 0.374 0.454 0.487 0.733 0.109 0.277 0.166 0.615 0.166 1.013z"/>
			<path d="m79.421 18.063h-2.358v-5.261c0-0.65-0.099-1.138-0.291-1.463-0.193-0.324-0.49-0.487-0.894-0.487-0.305 0-0.561 0.064-0.766 0.193-0.207 0.129-0.371 0.32-0.496 0.572-0.123 0.253-0.211 0.563-0.262 0.935-0.054 0.37-0.078 0.795-0.078 1.272v4.237h-2.359v-12.534h2.359v2.555c0 0.226-6e-3 0.464-0.017 0.713-0.01 0.25-0.022 0.479-0.038 0.688-0.021 0.247-0.039 0.488-0.054 0.726h0.123c0.252-0.467 0.574-0.805 0.967-1.011 0.394-0.207 0.837-0.312 1.33-0.312 0.429 0 0.816 0.063 1.164 0.189 0.351 0.126 0.646 0.323 0.896 0.593 0.249 0.269 0.438 0.609 0.572 1.025 0.135 0.417 0.2 0.915 0.2 1.495l2e-3 5.875z"/>
			<path d="m87.41 18.063-0.457-1.225h-0.069c-0.17 0.242-0.341 0.45-0.511 0.624-0.17 0.175-0.354 0.318-0.557 0.432-0.201 0.112-0.427 0.195-0.677 0.249-0.251 0.055-0.541 0.081-0.871 0.081-0.352 0-0.677-0.058-0.976-0.173-0.299-0.116-0.558-0.29-0.776-0.524-0.22-0.232-0.392-0.527-0.516-0.886-0.123-0.356-0.186-0.78-0.186-1.27 0-0.955 0.294-1.66 0.882-2.114s1.468-0.705 2.639-0.753l1.377-0.049v-0.678c0-0.369-0.104-0.645-0.31-0.82-0.207-0.179-0.495-0.268-0.866-0.268-0.372 0-0.733 0.058-1.087 0.169-0.354 0.113-0.708 0.265-1.063 0.451l-0.766-1.626c0.435-0.252 0.913-0.451 1.439-0.596 0.524-0.146 1.077-0.218 1.654-0.218 1.077 0 1.904 0.263 2.479 0.789 0.574 0.525 0.862 1.326 0.862 2.4v6.002h-1.644v3e-3zm-0.696-4.173-0.78 0.033c-0.315 0.011-0.581 0.054-0.797 0.129-0.218 0.075-0.392 0.176-0.522 0.302s-0.228 0.276-0.286 0.451c-0.06 0.175-0.089 0.369-0.089 0.584 0 0.376 0.087 0.645 0.263 0.802 0.177 0.158 0.405 0.237 0.688 0.237 0.217 0 0.418-0.039 0.604-0.116 0.187-0.078 0.348-0.192 0.483-0.347s0.244-0.341 0.321-0.564c0.076-0.223 0.115-0.479 0.115-0.769v-0.742z"/>
			<path d="m96.535 8.887c0.062 0 0.13 2e-3 0.205 4e-3 0.074 3e-3 0.146 9e-3 0.216 0.018 0.07 8e-3 0.135 0.016 0.193 0.023 0.06 8e-3 0.104 0.019 0.136 0.028v2.304c-0.041-0.011-0.098-0.021-0.17-0.032s-0.148-0.021-0.229-0.027c-0.081-7e-3 -0.158-0.015-0.235-0.017-0.078-3e-3 -0.144-5e-3 -0.193-5e-3 -0.305 0-0.585 0.041-0.84 0.121-0.255 0.081-0.475 0.211-0.657 0.391-0.184 0.182-0.324 0.417-0.426 0.709-0.101 0.294-0.149 0.651-0.149 1.076v4.584h-2.36v-9.008h1.787l0.349 1.354h0.116c0.123-0.23 0.258-0.439 0.402-0.628 0.144-0.188 0.305-0.349 0.482-0.479 0.178-0.132 0.379-0.233 0.604-0.306 0.223-0.074 0.48-0.11 0.769-0.11z"/>
			<path d="m99.34 6.728c0-0.229 0.034-0.423 0.102-0.576 0.066-0.152 0.158-0.276 0.274-0.37 0.115-0.095 0.252-0.16 0.41-0.197 0.157-0.038 0.323-0.058 0.498-0.058 0.176 0 0.341 0.02 0.495 0.058 0.155 0.037 0.29 0.104 0.406 0.197s0.209 0.218 0.278 0.369c0.069 0.153 0.104 0.347 0.104 0.576 0 0.227-0.034 0.417-0.104 0.572-0.069 0.156-0.162 0.28-0.278 0.375-0.116 0.094-0.251 0.161-0.406 0.201-0.154 0.04-0.319 0.061-0.495 0.061-0.175 0-0.341-0.021-0.498-0.061-0.158-0.04-0.295-0.107-0.41-0.201-0.116-0.094-0.208-0.218-0.276-0.374-0.066-0.155-0.1-0.347-0.1-0.572zm2.461 11.335h-2.359v-9.007h2.359v9.007z"/>
			<path d="m112.32 18.063h-2.359v-5.261c0-0.65-0.094-1.138-0.282-1.463-0.188-0.324-0.487-0.487-0.9-0.487-0.311 0-0.567 0.064-0.773 0.193s-0.37 0.32-0.49 0.572c-0.121 0.253-0.208 0.563-0.26 0.935-0.052 0.37-0.077 0.795-0.077 1.272v4.237h-2.359v-9.005h1.803l0.317 1.152h0.132c0.123-0.23 0.273-0.431 0.452-0.597 0.178-0.167 0.373-0.304 0.584-0.41 0.212-0.107 0.436-0.188 0.673-0.237 0.237-0.052 0.479-0.077 0.728-0.077 0.423 0 0.808 0.063 1.152 0.189s0.643 0.323 0.89 0.593c0.248 0.269 0.438 0.609 0.572 1.025 0.135 0.417 0.201 0.915 0.201 1.495v5.873h-4e-3z"/>
			<path d="m122.44 9.073v1.337l-1.261 0.41c0.103 0.184 0.175 0.372 0.216 0.568 0.042 0.196 0.062 0.407 0.062 0.632 0 0.457-0.068 0.875-0.209 1.253-0.14 0.379-0.346 0.703-0.619 0.973-0.272 0.269-0.615 0.477-1.027 0.624-0.413 0.146-0.894 0.222-1.439 0.222-0.118 0-0.247-7e-3 -0.387-0.021-0.139-0.014-0.242-0.027-0.311-0.044-0.103 0.092-0.185 0.188-0.242 0.286-0.061 0.1-0.09 0.22-0.09 0.358 0 0.112 0.033 0.202 0.102 0.27 0.065 0.067 0.154 0.121 0.263 0.161s0.234 0.067 0.379 0.081c0.146 0.013 0.294 0.021 0.449 0.021h1.346c0.418 0 0.792 0.05 1.122 0.148 0.33 0.1 0.609 0.251 0.839 0.455s0.406 0.463 0.53 0.777c0.123 0.313 0.187 0.688 0.187 1.124 0 0.51-0.1 0.971-0.294 1.382-0.196 0.411-0.489 0.76-0.879 1.047-0.39 0.288-0.872 0.508-1.45 0.661-0.577 0.153-1.245 0.229-2.003 0.229-0.589 0-1.103-0.058-1.54-0.173-0.438-0.116-0.805-0.282-1.1-0.5-0.294-0.218-0.514-0.479-0.661-0.785-0.146-0.307-0.221-0.651-0.221-1.039 0-0.327 0.055-0.612 0.163-0.854s0.252-0.448 0.433-0.62c0.182-0.172 0.387-0.312 0.615-0.419 0.229-0.107 0.466-0.19 0.708-0.25-0.107-0.048-0.216-0.115-0.321-0.201-0.104-0.086-0.2-0.186-0.285-0.298-0.085-0.113-0.154-0.238-0.209-0.375s-0.081-0.28-0.081-0.432c0-0.171 0.023-0.327 0.072-0.468 0.05-0.14 0.12-0.27 0.213-0.391 0.094-0.121 0.209-0.235 0.35-0.343 0.139-0.107 0.296-0.218 0.472-0.33-0.454-0.204-0.812-0.532-1.079-0.983-0.266-0.45-0.397-0.981-0.397-1.595 0-0.483 0.071-0.916 0.217-1.297 0.144-0.382 0.354-0.705 0.634-0.971 0.278-0.268 0.624-0.47 1.037-0.608 0.412-0.14 0.887-0.21 1.423-0.21 0.104 0 0.22 7e-3 0.35 0.021 0.129 0.014 0.256 0.028 0.383 0.048 0.126 0.02 0.243 0.039 0.352 0.061s0.193 0.04 0.256 0.058h2.932zm-6.188 10.264c0 0.134 0.026 0.264 0.081 0.391 0.055 0.126 0.144 0.237 0.268 0.334 0.124 0.098 0.286 0.173 0.486 0.229 0.201 0.056 0.449 0.085 0.743 0.085 0.804 0 1.41-0.118 1.817-0.354 0.407-0.235 0.61-0.554 0.61-0.951 0-0.338-0.126-0.562-0.379-0.677-0.253-0.111-0.645-0.169-1.176-0.169h-1.091c-0.14 0-0.289 0.019-0.449 0.053-0.159 0.034-0.307 0.096-0.439 0.182-0.136 0.086-0.246 0.2-0.337 0.343-0.089 0.14-0.134 0.318-0.134 0.534zm0.851-7.332c0 0.489 0.088 0.867 0.263 1.136 0.176 0.27 0.441 0.403 0.797 0.403 0.372 0 0.641-0.135 0.806-0.403 0.164-0.268 0.247-0.646 0.247-1.136 0-0.483-0.082-0.867-0.243-1.152-0.162-0.284-0.433-0.427-0.81-0.427-0.707 0-1.06 0.526-1.06 1.579z"/>
			<path d="m133.02 18.225c-0.619 0-1.188-0.094-1.71-0.282-0.521-0.188-0.971-0.471-1.347-0.85-0.377-0.379-0.669-0.856-0.878-1.435-0.209-0.577-0.312-1.256-0.312-2.034 0-0.789 0.096-1.479 0.286-2.07 0.189-0.591 0.458-1.084 0.801-1.479 0.343-0.396 0.756-0.691 1.237-0.892 0.481-0.198 1.018-0.298 1.604-0.298 0.572 0 1.09 0.09 1.551 0.271 0.462 0.18 0.854 0.443 1.178 0.793 0.32 0.35 0.568 0.776 0.741 1.284 0.173 0.509 0.26 1.09 0.26 1.744v1.192h-5.275c0.01 0.344 0.062 0.654 0.158 0.931s0.229 0.511 0.401 0.701c0.174 0.19 0.383 0.337 0.627 0.439 0.245 0.102 0.524 0.151 0.84 0.151 0.264 0 0.512-0.015 0.746-0.044s0.464-0.074 0.686-0.133c0.222-0.06 0.439-0.133 0.657-0.222 0.217-0.089 0.438-0.192 0.665-0.312v1.901c-0.206 0.113-0.413 0.208-0.622 0.286s-0.431 0.144-0.662 0.196c-0.231 0.055-0.481 0.094-0.75 0.117-0.269 0.029-0.563 0.045-0.882 0.045zm-0.302-7.589c-0.418 0-0.765 0.152-1.04 0.459-0.275 0.306-0.435 0.787-0.477 1.441h3.01c-5e-3 -0.273-0.039-0.525-0.101-0.758-0.062-0.229-0.155-0.431-0.278-0.601-0.124-0.169-0.277-0.302-0.465-0.397-0.185-0.096-0.402-0.144-0.649-0.144z"/>
			<path d="m143.44 11.449h4.487v6.105c-0.301 0.104-0.603 0.195-0.905 0.278-0.305 0.083-0.62 0.152-0.948 0.209-0.327 0.057-0.67 0.101-1.028 0.134-0.357 0.031-0.738 0.048-1.142 0.048-0.846 0-1.595-0.13-2.247-0.391s-1.201-0.647-1.646-1.16c-0.446-0.513-0.785-1.146-1.019-1.901-0.232-0.755-0.348-1.626-0.348-2.613 0-0.925 0.129-1.76 0.387-2.507 0.258-0.745 0.638-1.382 1.141-1.904 0.504-0.523 1.122-0.928 1.856-1.209 0.735-0.281 1.577-0.423 2.526-0.423 0.604 0 1.192 0.066 1.771 0.201 0.577 0.135 1.106 0.31 1.586 0.523l-0.797 1.998c-0.351-0.183-0.747-0.336-1.188-0.459-0.441-0.124-0.904-0.187-1.39-0.187-0.525 0-0.999 0.096-1.42 0.286-0.42 0.19-0.78 0.46-1.079 0.811-0.299 0.349-0.527 0.771-0.688 1.265s-0.239 1.045-0.239 1.651c0 0.58 0.055 1.109 0.166 1.592 0.11 0.479 0.285 0.896 0.521 1.244 0.237 0.35 0.543 0.621 0.916 0.813 0.374 0.193 0.821 0.289 1.344 0.289 0.34 0 0.628-0.016 0.861-0.048 0.234-0.032 0.455-0.069 0.661-0.112v-2.458h-2.143v-2.076h4e-3z"/>
		
	</g>

</svg>
